<mxfile host="app.diagrams.net" modified="2024-03-19T07:35:12.008Z" agent="Mozilla/5.0 (Macintosh; Intel Mac OS X 10_15_7) AppleWebKit/605.1.15 (KHTML, like Gecko) Version/16.6 Safari/605.1.15" etag="61xe1JjHk7vPFpSOhb18" version="24.0.7" type="device">
  <diagram name="페이지-1" id="mEju_CCPiQIIO7ooAdxl">
    <mxGraphModel dx="2186" dy="802" grid="1" gridSize="10" guides="1" tooltips="1" connect="1" arrows="1" fold="1" page="1" pageScale="1" pageWidth="827" pageHeight="1169" math="0" shadow="0">
      <root>
        <mxCell id="0" />
        <mxCell id="1" parent="0" />
        <mxCell id="fhEyWGHZXobxeUYgGWvz-8" style="edgeStyle=orthogonalEdgeStyle;rounded=0;orthogonalLoop=1;jettySize=auto;html=1;exitX=1;exitY=0.5;exitDx=0;exitDy=0;entryX=0;entryY=0.5;entryDx=0;entryDy=0;" edge="1" parent="1" source="fhEyWGHZXobxeUYgGWvz-1" target="fhEyWGHZXobxeUYgGWvz-2">
          <mxGeometry relative="1" as="geometry" />
        </mxCell>
        <mxCell id="fhEyWGHZXobxeUYgGWvz-1" value="지표 출처" style="rounded=0;whiteSpace=wrap;html=1;" vertex="1" parent="1">
          <mxGeometry x="-260" y="360" width="100" height="40" as="geometry" />
        </mxCell>
        <mxCell id="fhEyWGHZXobxeUYgGWvz-30" style="edgeStyle=orthogonalEdgeStyle;rounded=0;orthogonalLoop=1;jettySize=auto;html=1;exitX=1;exitY=0.5;exitDx=0;exitDy=0;" edge="1" parent="1" source="fhEyWGHZXobxeUYgGWvz-2">
          <mxGeometry relative="1" as="geometry">
            <mxPoint x="20" y="380" as="targetPoint" />
          </mxGeometry>
        </mxCell>
        <mxCell id="fhEyWGHZXobxeUYgGWvz-2" value="지표 수집기" style="rounded=0;whiteSpace=wrap;html=1;" vertex="1" parent="1">
          <mxGeometry x="-120" y="360" width="100" height="40" as="geometry" />
        </mxCell>
        <mxCell id="fhEyWGHZXobxeUYgGWvz-37" style="edgeStyle=orthogonalEdgeStyle;rounded=0;orthogonalLoop=1;jettySize=auto;html=1;exitX=0.5;exitY=1;exitDx=0;exitDy=0;entryX=0.5;entryY=0;entryDx=0;entryDy=0;" edge="1" parent="1" source="fhEyWGHZXobxeUYgGWvz-3" target="fhEyWGHZXobxeUYgGWvz-6">
          <mxGeometry relative="1" as="geometry" />
        </mxCell>
        <mxCell id="fhEyWGHZXobxeUYgGWvz-3" value="질의 서비스" style="rounded=0;whiteSpace=wrap;html=1;" vertex="1" parent="1">
          <mxGeometry x="440" y="360" width="100" height="40" as="geometry" />
        </mxCell>
        <mxCell id="fhEyWGHZXobxeUYgGWvz-34" style="edgeStyle=orthogonalEdgeStyle;rounded=0;orthogonalLoop=1;jettySize=auto;html=1;exitX=1;exitY=0.5;exitDx=0;exitDy=0;exitPerimeter=0;entryX=0;entryY=0.5;entryDx=0;entryDy=0;" edge="1" parent="1" source="fhEyWGHZXobxeUYgGWvz-4" target="fhEyWGHZXobxeUYgGWvz-3">
          <mxGeometry relative="1" as="geometry" />
        </mxCell>
        <mxCell id="fhEyWGHZXobxeUYgGWvz-4" value="시계열 DB" style="shape=cylinder3;whiteSpace=wrap;html=1;boundedLbl=1;backgroundOutline=1;size=15;" vertex="1" parent="1">
          <mxGeometry x="300" y="350" width="100" height="60" as="geometry" />
        </mxCell>
        <mxCell id="fhEyWGHZXobxeUYgGWvz-5" value="&lt;div&gt;경보 시스템&lt;/div&gt;" style="rounded=0;whiteSpace=wrap;html=1;" vertex="1" parent="1">
          <mxGeometry x="440" y="170" width="100" height="40" as="geometry" />
        </mxCell>
        <mxCell id="fhEyWGHZXobxeUYgGWvz-6" value="&lt;div&gt;캐시&lt;/div&gt;" style="rounded=0;whiteSpace=wrap;html=1;" vertex="1" parent="1">
          <mxGeometry x="440" y="440" width="100" height="40" as="geometry" />
        </mxCell>
        <mxCell id="fhEyWGHZXobxeUYgGWvz-16" style="edgeStyle=orthogonalEdgeStyle;rounded=0;orthogonalLoop=1;jettySize=auto;html=1;exitX=0.5;exitY=1;exitDx=0;exitDy=0;entryX=0.5;entryY=0;entryDx=0;entryDy=0;" edge="1" parent="1" source="fhEyWGHZXobxeUYgGWvz-5" target="fhEyWGHZXobxeUYgGWvz-3">
          <mxGeometry relative="1" as="geometry">
            <mxPoint x="410" y="403" as="sourcePoint" />
            <mxPoint x="450" y="400" as="targetPoint" />
            <Array as="points">
              <mxPoint x="490" y="260" />
              <mxPoint x="490" y="360" />
            </Array>
          </mxGeometry>
        </mxCell>
        <mxCell id="fhEyWGHZXobxeUYgGWvz-18" value="&lt;div&gt;이메일&lt;/div&gt;" style="rounded=0;whiteSpace=wrap;html=1;" vertex="1" parent="1">
          <mxGeometry x="620" y="90" width="100" height="40" as="geometry" />
        </mxCell>
        <mxCell id="fhEyWGHZXobxeUYgGWvz-19" value="&lt;div&gt;SMS&lt;/div&gt;" style="rounded=0;whiteSpace=wrap;html=1;" vertex="1" parent="1">
          <mxGeometry x="620" y="150" width="100" height="40" as="geometry" />
        </mxCell>
        <mxCell id="fhEyWGHZXobxeUYgGWvz-20" value="&lt;div&gt;PageDuty&lt;/div&gt;" style="rounded=0;whiteSpace=wrap;html=1;" vertex="1" parent="1">
          <mxGeometry x="620" y="210" width="100" height="40" as="geometry" />
        </mxCell>
        <mxCell id="fhEyWGHZXobxeUYgGWvz-21" value="&lt;div&gt;WebHook&lt;/div&gt;" style="rounded=0;whiteSpace=wrap;html=1;" vertex="1" parent="1">
          <mxGeometry x="620" y="270" width="100" height="40" as="geometry" />
        </mxCell>
        <mxCell id="fhEyWGHZXobxeUYgGWvz-22" style="edgeStyle=orthogonalEdgeStyle;rounded=0;orthogonalLoop=1;jettySize=auto;html=1;exitX=1;exitY=0;exitDx=0;exitDy=52.5;entryX=0;entryY=0.5;entryDx=0;entryDy=0;exitPerimeter=0;curved=1;" edge="1" parent="1" target="fhEyWGHZXobxeUYgGWvz-18">
          <mxGeometry relative="1" as="geometry">
            <mxPoint x="540" y="173" as="sourcePoint" />
            <mxPoint x="620" y="70" as="targetPoint" />
            <Array as="points">
              <mxPoint x="540" y="110" />
            </Array>
          </mxGeometry>
        </mxCell>
        <mxCell id="fhEyWGHZXobxeUYgGWvz-23" style="edgeStyle=orthogonalEdgeStyle;rounded=0;orthogonalLoop=1;jettySize=auto;html=1;entryX=0;entryY=0.5;entryDx=0;entryDy=0;curved=1;" edge="1" parent="1" target="fhEyWGHZXobxeUYgGWvz-21">
          <mxGeometry relative="1" as="geometry">
            <mxPoint x="540" y="210" as="sourcePoint" />
            <mxPoint x="580" y="230" as="targetPoint" />
            <Array as="points">
              <mxPoint x="540" y="290" />
            </Array>
          </mxGeometry>
        </mxCell>
        <mxCell id="fhEyWGHZXobxeUYgGWvz-24" style="edgeStyle=orthogonalEdgeStyle;rounded=0;orthogonalLoop=1;jettySize=auto;html=1;exitX=1;exitY=0;exitDx=0;exitDy=52.5;entryX=0;entryY=0.5;entryDx=0;entryDy=0;exitPerimeter=0;curved=1;" edge="1" parent="1" target="fhEyWGHZXobxeUYgGWvz-19">
          <mxGeometry relative="1" as="geometry">
            <mxPoint x="540" y="193" as="sourcePoint" />
            <mxPoint x="580" y="190" as="targetPoint" />
            <Array as="points">
              <mxPoint x="540" y="160" />
              <mxPoint x="620" y="160" />
            </Array>
          </mxGeometry>
        </mxCell>
        <mxCell id="fhEyWGHZXobxeUYgGWvz-25" style="edgeStyle=orthogonalEdgeStyle;rounded=0;orthogonalLoop=1;jettySize=auto;html=1;exitX=1;exitY=0.75;exitDx=0;exitDy=0;entryX=0;entryY=0.5;entryDx=0;entryDy=0;curved=1;" edge="1" parent="1" source="fhEyWGHZXobxeUYgGWvz-5" target="fhEyWGHZXobxeUYgGWvz-20">
          <mxGeometry relative="1" as="geometry">
            <mxPoint x="540" y="213" as="sourcePoint" />
            <mxPoint x="580" y="210" as="targetPoint" />
            <Array as="points">
              <mxPoint x="540" y="230" />
            </Array>
          </mxGeometry>
        </mxCell>
        <mxCell id="fhEyWGHZXobxeUYgGWvz-27" value="소비자" style="rounded=0;whiteSpace=wrap;html=1;" vertex="1" parent="1">
          <mxGeometry x="160" y="360" width="100" height="40" as="geometry" />
        </mxCell>
        <mxCell id="fhEyWGHZXobxeUYgGWvz-28" value="" style="shape=cylinder3;whiteSpace=wrap;html=1;boundedLbl=1;backgroundOutline=1;size=15;rotation=90;" vertex="1" parent="1">
          <mxGeometry x="40" y="330" width="60" height="100" as="geometry" />
        </mxCell>
        <mxCell id="fhEyWGHZXobxeUYgGWvz-31" style="edgeStyle=orthogonalEdgeStyle;rounded=0;orthogonalLoop=1;jettySize=auto;html=1;exitX=1;exitY=0.5;exitDx=0;exitDy=0;" edge="1" parent="1" source="fhEyWGHZXobxeUYgGWvz-29" target="fhEyWGHZXobxeUYgGWvz-27">
          <mxGeometry relative="1" as="geometry" />
        </mxCell>
        <mxCell id="fhEyWGHZXobxeUYgGWvz-29" value="카프카" style="rounded=0;whiteSpace=wrap;html=1;strokeColor=none;fillColor=none;" vertex="1" parent="1">
          <mxGeometry y="350" width="120" height="60" as="geometry" />
        </mxCell>
        <mxCell id="fhEyWGHZXobxeUYgGWvz-32" style="edgeStyle=orthogonalEdgeStyle;rounded=0;orthogonalLoop=1;jettySize=auto;html=1;exitX=1;exitY=0.5;exitDx=0;exitDy=0;entryX=0;entryY=0.5;entryDx=0;entryDy=0;entryPerimeter=0;" edge="1" parent="1" source="fhEyWGHZXobxeUYgGWvz-27" target="fhEyWGHZXobxeUYgGWvz-4">
          <mxGeometry relative="1" as="geometry" />
        </mxCell>
        <mxCell id="fhEyWGHZXobxeUYgGWvz-35" style="edgeStyle=orthogonalEdgeStyle;rounded=0;orthogonalLoop=1;jettySize=auto;html=1;exitX=0;exitY=0.5;exitDx=0;exitDy=0;entryX=1;entryY=0.5;entryDx=0;entryDy=0;" edge="1" parent="1" source="fhEyWGHZXobxeUYgGWvz-33" target="fhEyWGHZXobxeUYgGWvz-3">
          <mxGeometry relative="1" as="geometry" />
        </mxCell>
        <mxCell id="fhEyWGHZXobxeUYgGWvz-33" value="시각화 시스템" style="rounded=0;whiteSpace=wrap;html=1;" vertex="1" parent="1">
          <mxGeometry x="620" y="360" width="100" height="40" as="geometry" />
        </mxCell>
      </root>
    </mxGraphModel>
  </diagram>
</mxfile>
